# xmcd CD database file
#
# Track frame offsets:
#	183
#	32123
#	75545
#	90245
#	108315
#	125028
#	142048
#	161863
#	194210
#	214555
#	237738
#	273623
#	309480
#
# Disc length: 4345 seconds
#
# Revision: 1
# Processed by: cddbd v1.4PL0 Copyright (c) Steve Scherf et al.
# Submitted via: CDex 1.50beta9
#
DISCID=c110f70d
DTITLE=Modern Jazz Quartet - Modern Jazz Quartet
DYEAR=1900
DGENRE=Jazz
TTITLE0=Django
TTITLE1=La Ronde Suite
TTITLE2=The Queen's fancy
TTITLE3=Delaunay's dilemma
TTITLE4=Autumn in New York
TTITLE5=But not for me
TTITLE6=Milano
TTITLE7=Ralph's new blues
TTITLE8=All of you
TTITLE9=I'll remember April
TTITLE10=Gerwishin medley: Soon/For you, for me, forevermore/Love walked in/Our love is here to stay
TTITLE11=Softly, as in a morning sunrise
TTITLE12=Concorde
EXTD=
EXTT0=
EXTT1=
EXTT2=
EXTT3=
EXTT4=
EXTT5=
EXTT6=
EXTT7=
EXTT8=
EXTT9=
EXTT10=
EXTT11=
EXTT12=
PLAYORDER=
